# xmcd
#
# Track frame offsets:
#	150
#	18010
#	35888
#	58244
#	78996
#	99186
#	117444
#	130998
#	150884
#	169526
#	188136
#	208644
#	224395
#	237740
#
# Disc length: 3420 seconds
# Revision: 1
# Processed by: cddbd v1.5.2PL0 Copyright (c) Steve Scherf et al.
# Submitted via: dBpowerAMP V12.0
#
DISCID=ba0d5a0e
DTITLE=Lyn Bowtell - Secret Songs
DYEAR=2012
DGENRE=Country
TTITLE0=Sing Along
TTITLE1=Beautiful Liar
TTITLE2=Hush
TTITLE3=Wishing Well
TTITLE4=Little Things
TTITLE5=Sailing
TTITLE6=In This Song
TTITLE7=Trouble
TTITLE8=Here
TTITLE9=In love
TTITLE10=Take it Back
TTITLE11=Lucky I'm Broke
TTITLE12=No Lover
TTITLE13=Wonderwall
EXTD=
EXTT0=
EXTT1=
EXTT2=
EXTT3=
EXTT4=
EXTT5=
EXTT6=
EXTT7=
EXTT8=
EXTT9=
EXTT10=
EXTT11=
EXTT12=
EXTT13=
PLAYORDER=
